<?xml version="1.0" encoding="UTF-8" standalone="no"?>
<svg width="280px" height="187px" viewBox="0 0 280 187" version="1.1" xmlns="http://www.w3.org/2000/svg" xmlns:xlink="http://www.w3.org/1999/xlink">
    <!-- Generator: Sketch 3.6.1 (26313) - http://www.bohemiancoding.com/sketch -->
    <title>Text</title>
    <desc>Created with Sketch.</desc>
    <defs></defs>
    <g id="Page-2" stroke="none" stroke-width="1" fill="none" fill-rule="evenodd">
        <g id="Splash" transform="translate(-48.000000, -235.000000)" fill="#FFFFFF">
            <g id="Text" transform="translate(48.000000, 235.000000)">
                <g id="Logo">
                    <path d="M95.1688182,72.1348947 C94.4242727,73.3046074 93.3615455,73.8367085 91.9797273,72.6669957 C88.2597273,69.3697883 87.4097273,65.3294585 89.1106364,57.9919213 C92.9360909,41.8278734 101.546091,17.369416 106.753364,7.37319255 C107.604273,5.77870851 108.667,5.6722883 109.410636,6.94842128 C111.217909,10.0318787 111.429727,13.8602777 108.347909,22.0491766 C104.840636,31.6188096 99.6324545,45.4434319 95.0624545,60.5441872 C104.947,44.3801394 121.314273,22.0491766 132.261545,8.75574574 C133.006091,7.90529362 134.068818,7.58603298 134.918818,8.86216596 C137.044273,11.9456234 137.576091,14.6043096 134.918818,22.6867883 C131.517909,32.6830117 127.054273,45.6562723 123.015182,61.0753787 C133.749727,43.5296872 154.368818,16.1997032 163.722455,6.20438936 C164.997909,4.92734681 166.059727,5.14018723 166.272455,6.62825106 C166.910636,10.3511394 165.528818,14.9235702 160.108818,22.0491766 C152.349727,32.2573309 136.619727,51.8240968 123.758818,71.6037032 C122.908818,72.8789266 121.952455,73.4110277 120.570636,72.1348947 C116.957,68.8385968 115.681545,65.0101979 117.275182,57.4598202 C118.976091,49.5910915 122.589727,37.8930543 126.097,27.8968309 C116.531545,40.4453202 104.203364,57.7790809 95.1688182,72.1348947" id="Fill-1"></path>
                    <path d="M175.096909,72.7735069 C166.168727,72.7735069 163.936909,66.2864218 167.125091,57.0342303 C170.632364,46.7187463 179.879636,35.6601399 178.179636,34.7032676 C176.690545,33.8519059 165.106,41.0830229 158.941455,51.1865761 C155.116,57.4599112 151.182364,64.9038686 148.632364,71.3900441 C148.206909,72.3478261 147.463273,72.5606665 146.825091,71.815725 C145.124182,69.9019803 144.168727,66.9240335 146.400545,60.5442782 C150.119636,49.9095335 172.226909,12.4778154 180.836,1.73665053 C181.792364,0.461427128 182.856,0.566937766 183.386909,1.84398032 C184.768727,4.92743777 184.449636,10.2448101 180.411455,16.9438261 C177.860545,21.1979059 172.226909,29.8115761 167.656909,36.9362729 C172.014182,32.6831027 177.541455,29.1730548 180.411455,29.4923154 C184.025091,29.9179963 187.319636,35.234459 184.556,40.657342 C182.217818,45.3371027 177.116,53.1003207 174.671455,58.6296239 C172.014182,64.7974484 172.546,69.7955601 176.478727,69.5827197 C180.836,69.3698793 186.681455,61.713991 189.976909,54.9076452 C190.401455,53.9507729 191.464182,53.9507729 191.889636,54.801225 C192.421455,55.9709378 192.421455,58.2039431 190.826909,61.3947303 C187.850545,67.4561346 181.367818,72.7735069 175.096909,72.7735069" id="Fill-3"></path>
                    <path d="M216.549273,37.4680101 C216.017455,34.065292 213.892,34.7029037 213.360182,37.7872707 C212.829273,40.6578878 213.997455,43.7413452 215.698364,45.3367388 C216.549273,42.040441 216.868364,39.3817548 216.549273,37.4680101 M212.934727,46.9321324 C210.702909,45.2303186 208.152909,41.5083399 208.045636,37.5744303 C205.176545,40.0202761 202.094727,43.5294144 199.862909,47.5697441 C195.398364,55.6522229 193.803818,65.4356059 196.568364,67.7750314 C199.543818,70.2208771 206.027455,66.4988984 211.234727,56.7155154 C212.829273,53.7384782 214.104727,50.7605314 214.954727,48.2082654 C214.211091,47.8890048 213.573818,47.4633239 212.934727,46.9321324 M221.969273,49.5908186 C219.737455,58.6301697 213.042,69.3695154 205.176545,72.0282016 C201.350182,73.3043346 196.036545,72.8795633 191.784727,67.3502601 C187.108364,61.1815261 188.702909,51.9302441 193.485636,43.4229941 C197.523818,36.1918771 204.007455,30.0240527 210.384727,29.5992814 C213.679273,29.3855314 215.486545,30.3433133 217.612,33.2139303 C220.055636,36.5102282 223.244727,37.2551697 222.607455,44.9119676 C222.501091,45.7624197 222.501091,46.5073612 222.394727,47.3578133 C223.032909,47.3578133 223.670182,47.1449729 224.521091,47.1449729 C225.264727,47.1449729 225.264727,47.6770739 224.839273,48.2082654 C224.095636,49.0587176 223.032909,49.4843984 221.969273,49.5908186" id="Fill-5"></path>
                    <path d="M70.6893636,61.7229957 C63.1620909,58.6477245 43.9593636,69.2542723 29.5193636,91.6952936 C14.9257273,114.290033 14.6175455,140.111943 24.9102727,144.723485 C35.0493636,149.335028 53.0239091,136.883863 65.6202727,113.521443 C79.4457273,88.0069691 79.1393636,65.1047936 70.6893636,61.7229957 M69.3075455,163.321554 C71.9184545,162.86131 71.7648182,164.091054 70.843,165.167081 C65.773,171.776049 55.4811818,172.082576 47.9539091,169.470278 C31.5157273,163.936427 21.6839091,149.642464 1.71390909,154.254006 C0.177545455,154.560533 -0.437,153.639134 0.330272727,152.563107 C3.09572727,148.872964 8.933,146.414384 16.9220909,146.720911 L17.9975455,146.720911 C10.4702727,141.035161 7.24390909,131.812985 7.24390909,121.82131 C7.39663636,89.0820862 35.8175455,61.1081234 52.7157273,55.2677457 C61.933,52.039666 69.4611818,53.7305649 73.9166364,58.3411979 C92.5048182,66.6419745 88.0493636,96.6133628 76.8348182,117.824639 C67.003,136.26899 52.4084545,151.332453 36.2775455,152.101953 C47.9539091,157.942331 58.7066364,165.473607 69.3075455,163.321554" id="Fill-7"></path>
                    <path d="M90.2042727,151.639707 C79.297,150.872027 78.9906364,139.497798 82.3706364,129.352404 C85.7506364,119.20883 93.5842727,104.145367 103.569727,90.1588404 C104.799727,88.4679415 106.335182,88.6216596 107.564273,90.0042128 C110.943364,95.0769096 110.176091,101.993314 104.645182,110.754335 C98.9606364,119.823702 95.8888182,125.970606 92.6624545,133.349074 C89.437,140.880351 89.8979091,146.414202 93.4306364,146.720729 C99.4215455,147.181883 107.871545,136.423436 116.167,123.051782 C125.845182,107.372537 130.300636,96.7678085 135.216091,90.1588404 C136.752455,88.0067872 137.827909,87.6984415 139.057,89.2365319 C141.361545,92.0016383 142.589727,98.765234 138.903364,106.451138 C135.523364,113.367543 127.841545,124.895489 124.308818,132.734202 C120.314273,141.496133 120.928818,147.951383 126.459727,147.643947 C132.911545,147.336511 140.747,137.192027 146.737909,126.431761 C147.505182,125.049207 148.888818,124.895489 149.503364,126.278952 C150.117909,127.507787 150.270636,131.659085 148.120636,135.962282 C143.666091,144.569585 134.140636,152.409207 125.077909,152.409207 C115.091545,152.409207 111.097,146.105856 112.327,137.192027 C106.949727,144.416777 98.8079091,152.25458 90.2042727,151.639707" id="Fill-9"></path>
                    <path d="M184.839,101.07146 C184.069909,96.1524814 180.998091,97.0747899 180.229909,101.532614 C179.462636,105.682093 181.150818,110.139918 183.609909,112.445689 C184.839,107.681338 185.299909,103.838386 184.839,101.07146 M179.615364,114.75146 C176.389,112.291061 172.702636,106.911838 172.548091,101.225178 C168.400818,104.759785 163.946273,109.832481 160.719909,115.672859 C154.268091,127.355434 151.963545,141.495678 155.958091,144.877476 C160.259,148.412082 169.630818,143.032859 177.158091,128.891705 C179.462636,124.588508 181.305364,120.284402 182.534455,116.595168 C181.459,116.134013 180.538091,115.519141 179.615364,114.75146 M192.672636,118.593503 C189.447182,131.65863 179.769,147.182338 168.400818,151.02438 C162.870818,152.869907 155.189,152.255035 149.044455,144.262604 C142.285364,135.346955 144.589,121.975301 151.502636,109.678763 C157.339909,99.2268431 166.710818,90.3121037 175.928091,89.6972314 C180.690818,89.3897952 183.302636,90.773258 186.375364,94.9227367 C189.908091,99.6870878 194.517182,100.763114 193.595364,111.830816 C193.441727,113.060561 193.441727,114.136588 193.287182,115.366332 C194.209909,115.366332 195.131727,115.057987 196.360818,115.057987 C197.436273,115.057987 197.436273,115.827487 196.821727,116.595168 C195.746273,117.824912 194.209909,118.439785 192.672636,118.593503" id="Fill-11"></path>
                    <path d="M204.501455,85.854825 C202.965091,83.7027718 203.886909,82.6267452 206.191455,82.7795537 C210.492364,82.9341814 214.794182,82.6267452 218.942364,82.1646814 C223.704182,73.7120059 228.006,66.4872559 230.616909,63.105458 C232.000545,61.1080324 233.536,61.2617505 234.305091,63.105458 C235.994182,67.4095644 235.994182,72.4822612 232.306909,80.4756016 C238.298727,80.3209739 240.603273,83.0878995 241.832364,85.085325 C242.907818,86.9308516 242.293273,88.0068782 239.988727,88.0068782 C236.608727,87.5457239 231.846,88.0068782 228.006,88.6217505 C222.014182,98.9199527 213.257818,113.829697 207.420545,126.740197 C202.350545,137.959798 204.040545,147.49032 210.492364,147.796846 C217.406909,148.105192 226.161455,137.192118 231.846,125.664171 C232.767818,123.819554 234.457818,123.512118 235.072364,125.664171 C235.841455,128.122751 235.072364,130.889676 233.536,134.425192 C231.539636,138.883016 221.399636,152.408389 209.110545,151.948144 C198.970545,151.639798 190.828727,140.26557 198.203273,122.590719 C201.429636,114.904814 207.881455,101.993405 214.486909,89.8505856 C209.263273,89.8505856 205.730545,87.5457239 204.501455,85.854825" id="Fill-13"></path>
                    <path d="M258.886,112.291334 C263.802364,105.836084 267.181455,97.8436532 265.031455,96.1527543 C261.805091,93.5404564 249.054182,102.762632 241.833273,117.364031 C241.373273,118.28543 240.912364,119.208648 240.605091,119.976329 C248.132364,124.742499 254.430545,118.132621 258.886,112.291334 M246.135091,147.644674 C258.886,148.259547 270.101455,135.9621 276.706,125.818526 C277.474182,124.588781 278.704182,124.588781 279.318727,125.971334 C279.933273,127.201079 279.471455,131.504276 276.706,135.500946 C270.254182,144.877749 258.425091,151.947871 246.596909,152.101589 C227.086,152.409026 220.326909,133.195174 230.311455,113.367361 C240.297818,93.5404564 255.966909,85.547116 263.647818,90.0040309 C267.488727,92.3107117 270.254182,94.616483 272.712364,97.9964617 C275.477818,101.686605 274.248727,111.062499 267.796909,118.901212 C260.269636,128.122478 249.975091,132.120057 239.222364,123.358127 C234.306,137.499281 237.993273,147.181701 246.135091,147.644674" id="Fill-15"></path>
                </g>
                <text id="Who-said-it?" font-family="SignPainter-HouseScript, SignPainter" font-size="36" font-weight="normal" letter-spacing="-0.86823523">
                    <tspan x="100.639411" y="186">Who said it?</tspan>
                </text>
            </g>
        </g>
    </g>
</svg>